<mxfile host="app.diagrams.net" agent="Mozilla/5.0 (Windows NT 10.0; Win64; x64) AppleWebKit/537.36 (KHTML, like Gecko) Chrome/135.0.0.0 Safari/537.36 Edg/135.0.0.0" version="26.2.13">
  <diagram name="Halaman-1" id="KRT9VMPpkP1ITBcSx__i">
    <mxGraphModel dx="2264" dy="947" grid="1" gridSize="10" guides="1" tooltips="1" connect="1" arrows="1" fold="1" page="1" pageScale="1" pageWidth="827" pageHeight="1169" math="0" shadow="0">
      <root>
        <mxCell id="0" />
        <mxCell id="1" parent="0" />
        <mxCell id="sU6_pWVD_D7WRCJYZStw-86" value="" style="fontStyle=0;dashed=1;html=1;whiteSpace=wrap;fontFamily=Helvetica;fontSize=11;fontColor=default;labelBackgroundColor=default;" vertex="1" parent="1">
          <mxGeometry x="1070" y="590" width="140" height="80" as="geometry" />
        </mxCell>
        <mxCell id="sU6_pWVD_D7WRCJYZStw-89" style="edgeStyle=orthogonalEdgeStyle;shape=connector;rounded=0;orthogonalLoop=1;jettySize=auto;html=1;exitX=0.75;exitY=1;exitDx=0;exitDy=0;entryX=0.5;entryY=1;entryDx=0;entryDy=0;dashed=1;strokeColor=default;align=center;verticalAlign=middle;fontFamily=Helvetica;fontSize=11;fontColor=default;labelBackgroundColor=default;endArrow=none;" edge="1" parent="1" source="sU6_pWVD_D7WRCJYZStw-47" target="sU6_pWVD_D7WRCJYZStw-86">
          <mxGeometry relative="1" as="geometry">
            <Array as="points">
              <mxPoint x="830" y="685" />
              <mxPoint x="830" y="705" />
              <mxPoint x="1140" y="705" />
            </Array>
          </mxGeometry>
        </mxCell>
        <mxCell id="sU6_pWVD_D7WRCJYZStw-47" value="" style="fontStyle=0;dashed=1;html=1;whiteSpace=wrap;fontFamily=Helvetica;fontSize=11;fontColor=default;labelBackgroundColor=default;" vertex="1" parent="1">
          <mxGeometry x="760" y="520" width="140" height="165" as="geometry" />
        </mxCell>
        <mxCell id="sU6_pWVD_D7WRCJYZStw-2" value="" style="whiteSpace=wrap;html=1;aspect=fixed;" vertex="1" parent="1">
          <mxGeometry x="370" y="100" width="90" height="90" as="geometry" />
        </mxCell>
        <mxCell id="sU6_pWVD_D7WRCJYZStw-1" value="C&lt;span style=&quot;background-color: transparent; color: light-dark(rgb(0, 0, 0), rgb(255, 255, 255));&quot;&gt;ommisioner&lt;/span&gt;" style="whiteSpace=wrap;html=1;aspect=fixed;" vertex="1" parent="1">
          <mxGeometry x="375" y="105" width="80" height="80" as="geometry" />
        </mxCell>
        <mxCell id="sU6_pWVD_D7WRCJYZStw-13" style="edgeStyle=elbowEdgeStyle;shape=connector;rounded=0;orthogonalLoop=1;jettySize=auto;html=1;entryX=0.5;entryY=0;entryDx=0;entryDy=0;strokeColor=default;align=center;verticalAlign=middle;fontFamily=Helvetica;fontSize=11;fontColor=default;labelBackgroundColor=default;endArrow=none;elbow=vertical;" edge="1" parent="1" source="sU6_pWVD_D7WRCJYZStw-3" target="sU6_pWVD_D7WRCJYZStw-12">
          <mxGeometry relative="1" as="geometry" />
        </mxCell>
        <mxCell id="sU6_pWVD_D7WRCJYZStw-38" style="edgeStyle=orthogonalEdgeStyle;shape=connector;rounded=0;orthogonalLoop=1;jettySize=auto;html=1;entryX=0.5;entryY=0;entryDx=0;entryDy=0;strokeColor=default;align=center;verticalAlign=middle;fontFamily=Helvetica;fontSize=11;fontColor=default;labelBackgroundColor=default;endArrow=none;" edge="1" parent="1" source="sU6_pWVD_D7WRCJYZStw-3" target="sU6_pWVD_D7WRCJYZStw-36">
          <mxGeometry relative="1" as="geometry">
            <Array as="points">
              <mxPoint x="415" y="340" />
              <mxPoint x="630" y="340" />
            </Array>
          </mxGeometry>
        </mxCell>
        <mxCell id="sU6_pWVD_D7WRCJYZStw-95" style="edgeStyle=orthogonalEdgeStyle;shape=connector;rounded=0;orthogonalLoop=1;jettySize=auto;html=1;exitX=1;exitY=0.5;exitDx=0;exitDy=0;entryX=0.5;entryY=0;entryDx=0;entryDy=0;dashed=1;strokeColor=default;align=center;verticalAlign=middle;fontFamily=Helvetica;fontSize=11;fontColor=default;labelBackgroundColor=default;endArrow=none;" edge="1" parent="1" source="sU6_pWVD_D7WRCJYZStw-3" target="sU6_pWVD_D7WRCJYZStw-91">
          <mxGeometry relative="1" as="geometry" />
        </mxCell>
        <mxCell id="sU6_pWVD_D7WRCJYZStw-97" style="edgeStyle=orthogonalEdgeStyle;shape=connector;rounded=0;orthogonalLoop=1;jettySize=auto;html=1;exitX=1;exitY=0.5;exitDx=0;exitDy=0;entryX=0.5;entryY=0;entryDx=0;entryDy=0;dashed=1;strokeColor=default;align=center;verticalAlign=middle;fontFamily=Helvetica;fontSize=11;fontColor=default;labelBackgroundColor=default;endArrow=none;" edge="1" parent="1" source="sU6_pWVD_D7WRCJYZStw-3" target="sU6_pWVD_D7WRCJYZStw-96">
          <mxGeometry relative="1" as="geometry" />
        </mxCell>
        <mxCell id="sU6_pWVD_D7WRCJYZStw-98" style="edgeStyle=elbowEdgeStyle;shape=connector;rounded=0;orthogonalLoop=1;jettySize=auto;elbow=vertical;html=1;exitX=0.5;exitY=1;exitDx=0;exitDy=0;entryX=0.5;entryY=0;entryDx=0;entryDy=0;strokeColor=default;align=center;verticalAlign=middle;fontFamily=Helvetica;fontSize=11;fontColor=default;labelBackgroundColor=default;endArrow=none;" edge="1" parent="1" source="sU6_pWVD_D7WRCJYZStw-3" target="sU6_pWVD_D7WRCJYZStw-34">
          <mxGeometry relative="1" as="geometry">
            <Array as="points">
              <mxPoint x="450" y="340" />
            </Array>
          </mxGeometry>
        </mxCell>
        <mxCell id="sU6_pWVD_D7WRCJYZStw-3" value="Chief Executive Officer" style="rounded=0;whiteSpace=wrap;html=1;" vertex="1" parent="1">
          <mxGeometry x="355" y="240" width="120" height="60" as="geometry" />
        </mxCell>
        <mxCell id="sU6_pWVD_D7WRCJYZStw-6" value="" style="endArrow=none;html=1;rounded=0;exitX=0.5;exitY=1;exitDx=0;exitDy=0;entryX=0.5;entryY=0;entryDx=0;entryDy=0;" edge="1" parent="1" source="sU6_pWVD_D7WRCJYZStw-2" target="sU6_pWVD_D7WRCJYZStw-3">
          <mxGeometry width="50" height="50" relative="1" as="geometry">
            <mxPoint x="470" y="200" as="sourcePoint" />
            <mxPoint x="660" y="130" as="targetPoint" />
          </mxGeometry>
        </mxCell>
        <mxCell id="sU6_pWVD_D7WRCJYZStw-15" style="edgeStyle=none;shape=connector;rounded=0;orthogonalLoop=1;jettySize=auto;html=1;strokeColor=default;align=center;verticalAlign=middle;fontFamily=Helvetica;fontSize=11;fontColor=default;labelBackgroundColor=default;endArrow=none;" edge="1" parent="1" source="sU6_pWVD_D7WRCJYZStw-12" target="sU6_pWVD_D7WRCJYZStw-14">
          <mxGeometry relative="1" as="geometry" />
        </mxCell>
        <mxCell id="sU6_pWVD_D7WRCJYZStw-12" value="Enginering Director" style="rounded=0;whiteSpace=wrap;html=1;fontFamily=Helvetica;fontSize=11;fontColor=default;labelBackgroundColor=default;" vertex="1" parent="1">
          <mxGeometry x="120" y="380" width="120" height="60" as="geometry" />
        </mxCell>
        <mxCell id="sU6_pWVD_D7WRCJYZStw-17" style="edgeStyle=none;shape=connector;rounded=0;orthogonalLoop=1;jettySize=auto;html=1;entryX=0.5;entryY=0;entryDx=0;entryDy=0;strokeColor=default;align=center;verticalAlign=middle;fontFamily=Helvetica;fontSize=11;fontColor=default;labelBackgroundColor=default;endArrow=none;" edge="1" parent="1" source="sU6_pWVD_D7WRCJYZStw-14" target="sU6_pWVD_D7WRCJYZStw-16">
          <mxGeometry relative="1" as="geometry" />
        </mxCell>
        <mxCell id="sU6_pWVD_D7WRCJYZStw-20" style="edgeStyle=entityRelationEdgeStyle;shape=connector;rounded=0;orthogonalLoop=1;jettySize=auto;html=1;entryX=1;entryY=0.5;entryDx=0;entryDy=0;strokeColor=default;align=center;verticalAlign=middle;fontFamily=Helvetica;fontSize=11;fontColor=default;labelBackgroundColor=default;endArrow=none;" edge="1" parent="1" source="sU6_pWVD_D7WRCJYZStw-14" target="sU6_pWVD_D7WRCJYZStw-16">
          <mxGeometry relative="1" as="geometry" />
        </mxCell>
        <mxCell id="sU6_pWVD_D7WRCJYZStw-22" style="edgeStyle=entityRelationEdgeStyle;shape=connector;rounded=0;orthogonalLoop=1;jettySize=auto;html=1;entryX=1;entryY=0.5;entryDx=0;entryDy=0;strokeColor=default;align=center;verticalAlign=middle;fontFamily=Helvetica;fontSize=11;fontColor=default;labelBackgroundColor=default;endArrow=none;" edge="1" parent="1" source="sU6_pWVD_D7WRCJYZStw-14" target="sU6_pWVD_D7WRCJYZStw-21">
          <mxGeometry relative="1" as="geometry" />
        </mxCell>
        <mxCell id="sU6_pWVD_D7WRCJYZStw-33" style="edgeStyle=entityRelationEdgeStyle;shape=connector;rounded=0;orthogonalLoop=1;jettySize=auto;html=1;entryX=1;entryY=0.5;entryDx=0;entryDy=0;strokeColor=default;align=center;verticalAlign=middle;fontFamily=Helvetica;fontSize=11;fontColor=default;labelBackgroundColor=default;endArrow=none;" edge="1" parent="1" source="sU6_pWVD_D7WRCJYZStw-14" target="sU6_pWVD_D7WRCJYZStw-32">
          <mxGeometry relative="1" as="geometry" />
        </mxCell>
        <mxCell id="sU6_pWVD_D7WRCJYZStw-14" value="Assistant Enginering Director" style="rounded=0;whiteSpace=wrap;html=1;fontFamily=Helvetica;fontSize=11;fontColor=default;labelBackgroundColor=default;" vertex="1" parent="1">
          <mxGeometry x="120" y="480" width="120" height="60" as="geometry" />
        </mxCell>
        <mxCell id="sU6_pWVD_D7WRCJYZStw-16" value="Supervisor" style="rounded=0;whiteSpace=wrap;html=1;fontFamily=Helvetica;fontSize=11;fontColor=default;labelBackgroundColor=default;" vertex="1" parent="1">
          <mxGeometry x="120" y="570" width="120" height="60" as="geometry" />
        </mxCell>
        <mxCell id="sU6_pWVD_D7WRCJYZStw-28" style="edgeStyle=none;shape=connector;rounded=0;orthogonalLoop=1;jettySize=auto;html=1;entryX=0.5;entryY=0;entryDx=0;entryDy=0;strokeColor=default;align=center;verticalAlign=middle;fontFamily=Helvetica;fontSize=11;fontColor=default;labelBackgroundColor=default;endArrow=none;" edge="1" parent="1" source="sU6_pWVD_D7WRCJYZStw-21" target="sU6_pWVD_D7WRCJYZStw-26">
          <mxGeometry relative="1" as="geometry" />
        </mxCell>
        <mxCell id="sU6_pWVD_D7WRCJYZStw-29" style="edgeStyle=none;shape=connector;rounded=0;orthogonalLoop=1;jettySize=auto;html=1;entryX=0.5;entryY=0;entryDx=0;entryDy=0;strokeColor=default;align=center;verticalAlign=middle;fontFamily=Helvetica;fontSize=11;fontColor=default;labelBackgroundColor=default;endArrow=none;" edge="1" parent="1" source="sU6_pWVD_D7WRCJYZStw-21" target="sU6_pWVD_D7WRCJYZStw-27">
          <mxGeometry relative="1" as="geometry" />
        </mxCell>
        <mxCell id="sU6_pWVD_D7WRCJYZStw-31" style="edgeStyle=entityRelationEdgeStyle;shape=connector;rounded=0;orthogonalLoop=1;jettySize=auto;html=1;entryX=1;entryY=0.75;entryDx=0;entryDy=0;strokeColor=default;align=center;verticalAlign=middle;fontFamily=Helvetica;fontSize=11;fontColor=default;labelBackgroundColor=default;endArrow=none;" edge="1" parent="1" source="sU6_pWVD_D7WRCJYZStw-21" target="sU6_pWVD_D7WRCJYZStw-30">
          <mxGeometry relative="1" as="geometry" />
        </mxCell>
        <mxCell id="sU6_pWVD_D7WRCJYZStw-21" value="Senior Architect" style="rounded=0;whiteSpace=wrap;html=1;fontFamily=Helvetica;fontSize=11;fontColor=default;labelBackgroundColor=default;" vertex="1" parent="1">
          <mxGeometry x="120" y="660" width="120" height="60" as="geometry" />
        </mxCell>
        <mxCell id="sU6_pWVD_D7WRCJYZStw-26" value="3D Artist" style="whiteSpace=wrap;html=1;aspect=fixed;fontFamily=Helvetica;fontSize=11;fontColor=default;labelBackgroundColor=default;" vertex="1" parent="1">
          <mxGeometry x="80" y="770" width="80" height="80" as="geometry" />
        </mxCell>
        <mxCell id="sU6_pWVD_D7WRCJYZStw-27" value="Junior Artist" style="whiteSpace=wrap;html=1;aspect=fixed;fontFamily=Helvetica;fontSize=11;fontColor=default;labelBackgroundColor=default;" vertex="1" parent="1">
          <mxGeometry x="180" y="770" width="80" height="80" as="geometry" />
        </mxCell>
        <mxCell id="sU6_pWVD_D7WRCJYZStw-30" value="Estimator" style="rounded=0;whiteSpace=wrap;html=1;fontFamily=Helvetica;fontSize=11;fontColor=default;labelBackgroundColor=default;" vertex="1" parent="1">
          <mxGeometry x="120" y="900" width="120" height="60" as="geometry" />
        </mxCell>
        <mxCell id="sU6_pWVD_D7WRCJYZStw-32" value="Drafter" style="rounded=0;whiteSpace=wrap;html=1;fontFamily=Helvetica;fontSize=11;fontColor=default;labelBackgroundColor=default;" vertex="1" parent="1">
          <mxGeometry x="120" y="990" width="120" height="60" as="geometry" />
        </mxCell>
        <mxCell id="sU6_pWVD_D7WRCJYZStw-105" style="edgeStyle=entityRelationEdgeStyle;shape=connector;rounded=0;orthogonalLoop=1;jettySize=auto;html=1;exitX=1;exitY=0.5;exitDx=0;exitDy=0;entryX=1;entryY=0.5;entryDx=0;entryDy=0;strokeColor=default;align=center;verticalAlign=middle;fontFamily=Helvetica;fontSize=11;fontColor=default;labelBackgroundColor=default;endArrow=none;" edge="1" parent="1" source="sU6_pWVD_D7WRCJYZStw-34" target="sU6_pWVD_D7WRCJYZStw-99">
          <mxGeometry relative="1" as="geometry" />
        </mxCell>
        <mxCell id="sU6_pWVD_D7WRCJYZStw-106" style="edgeStyle=entityRelationEdgeStyle;shape=connector;rounded=0;orthogonalLoop=1;jettySize=auto;html=1;exitX=1;exitY=0.5;exitDx=0;exitDy=0;entryX=1;entryY=0.5;entryDx=0;entryDy=0;strokeColor=default;align=center;verticalAlign=middle;fontFamily=Helvetica;fontSize=11;fontColor=default;labelBackgroundColor=default;endArrow=none;" edge="1" parent="1" source="sU6_pWVD_D7WRCJYZStw-34" target="sU6_pWVD_D7WRCJYZStw-100">
          <mxGeometry relative="1" as="geometry" />
        </mxCell>
        <mxCell id="sU6_pWVD_D7WRCJYZStw-107" style="edgeStyle=entityRelationEdgeStyle;shape=connector;rounded=0;orthogonalLoop=1;jettySize=auto;html=1;exitX=1;exitY=0.5;exitDx=0;exitDy=0;entryX=1;entryY=0.5;entryDx=0;entryDy=0;strokeColor=default;align=center;verticalAlign=middle;fontFamily=Helvetica;fontSize=11;fontColor=default;labelBackgroundColor=default;endArrow=none;" edge="1" parent="1" source="sU6_pWVD_D7WRCJYZStw-34" target="sU6_pWVD_D7WRCJYZStw-101">
          <mxGeometry relative="1" as="geometry" />
        </mxCell>
        <mxCell id="sU6_pWVD_D7WRCJYZStw-108" style="edgeStyle=entityRelationEdgeStyle;shape=connector;rounded=0;orthogonalLoop=1;jettySize=auto;html=1;exitX=1;exitY=0.5;exitDx=0;exitDy=0;entryX=1;entryY=0.75;entryDx=0;entryDy=0;strokeColor=default;align=center;verticalAlign=middle;fontFamily=Helvetica;fontSize=11;fontColor=default;labelBackgroundColor=default;endArrow=none;" edge="1" parent="1" source="sU6_pWVD_D7WRCJYZStw-34" target="sU6_pWVD_D7WRCJYZStw-102">
          <mxGeometry relative="1" as="geometry" />
        </mxCell>
        <mxCell id="sU6_pWVD_D7WRCJYZStw-109" style="edgeStyle=entityRelationEdgeStyle;shape=connector;rounded=0;orthogonalLoop=1;jettySize=auto;html=1;exitX=1;exitY=0.5;exitDx=0;exitDy=0;entryX=1;entryY=0.5;entryDx=0;entryDy=0;strokeColor=default;align=center;verticalAlign=middle;fontFamily=Helvetica;fontSize=11;fontColor=default;labelBackgroundColor=default;endArrow=none;" edge="1" parent="1" source="sU6_pWVD_D7WRCJYZStw-34" target="sU6_pWVD_D7WRCJYZStw-103">
          <mxGeometry relative="1" as="geometry" />
        </mxCell>
        <mxCell id="sU6_pWVD_D7WRCJYZStw-34" value="Chief Marketing Officer" style="rounded=0;whiteSpace=wrap;html=1;fontFamily=Helvetica;fontSize=11;fontColor=default;labelBackgroundColor=default;" vertex="1" parent="1">
          <mxGeometry x="414" y="390" width="120" height="60" as="geometry" />
        </mxCell>
        <mxCell id="sU6_pWVD_D7WRCJYZStw-82" style="edgeStyle=orthogonalEdgeStyle;shape=connector;rounded=0;orthogonalLoop=1;jettySize=auto;html=1;exitX=0;exitY=0.25;exitDx=0;exitDy=0;entryX=0;entryY=0.5;entryDx=0;entryDy=0;strokeColor=default;align=center;verticalAlign=middle;fontFamily=Helvetica;fontSize=11;fontColor=default;labelBackgroundColor=default;endArrow=none;" edge="1" parent="1" source="sU6_pWVD_D7WRCJYZStw-36" target="sU6_pWVD_D7WRCJYZStw-39">
          <mxGeometry relative="1" as="geometry">
            <Array as="points">
              <mxPoint x="770" y="370" />
              <mxPoint x="750" y="370" />
              <mxPoint x="750" y="555" />
            </Array>
          </mxGeometry>
        </mxCell>
        <mxCell id="sU6_pWVD_D7WRCJYZStw-83" style="edgeStyle=orthogonalEdgeStyle;shape=connector;rounded=0;orthogonalLoop=1;jettySize=auto;html=1;exitX=0;exitY=0.5;exitDx=0;exitDy=0;entryX=0;entryY=0.5;entryDx=0;entryDy=0;strokeColor=default;align=center;verticalAlign=middle;fontFamily=Helvetica;fontSize=11;fontColor=default;labelBackgroundColor=default;endArrow=none;" edge="1" parent="1" source="sU6_pWVD_D7WRCJYZStw-36" target="sU6_pWVD_D7WRCJYZStw-42">
          <mxGeometry relative="1" as="geometry" />
        </mxCell>
        <mxCell id="sU6_pWVD_D7WRCJYZStw-36" value="Chief Finance Officer" style="rounded=0;whiteSpace=wrap;html=1;fontFamily=Helvetica;fontSize=11;fontColor=default;labelBackgroundColor=default;" vertex="1" parent="1">
          <mxGeometry x="770" y="340" width="120" height="60" as="geometry" />
        </mxCell>
        <mxCell id="sU6_pWVD_D7WRCJYZStw-39" value="Tax &amp;amp; Accounting" style="rounded=0;whiteSpace=wrap;html=1;fontFamily=Helvetica;fontSize=11;fontColor=default;labelBackgroundColor=default;" vertex="1" parent="1">
          <mxGeometry x="770" y="525" width="120" height="60" as="geometry" />
        </mxCell>
        <mxCell id="sU6_pWVD_D7WRCJYZStw-42" value="Finance Admin" style="rounded=0;whiteSpace=wrap;html=1;fontFamily=Helvetica;fontSize=11;fontColor=default;labelBackgroundColor=default;" vertex="1" parent="1">
          <mxGeometry x="770" y="615" width="120" height="60" as="geometry" />
        </mxCell>
        <mxCell id="sU6_pWVD_D7WRCJYZStw-48" style="edgeStyle=none;shape=connector;rounded=0;orthogonalLoop=1;jettySize=auto;html=1;exitX=0;exitY=0.5;exitDx=0;exitDy=0;strokeColor=default;align=center;verticalAlign=middle;fontFamily=Helvetica;fontSize=11;fontColor=default;labelBackgroundColor=default;endArrow=none;" edge="1" parent="1" source="sU6_pWVD_D7WRCJYZStw-47" target="sU6_pWVD_D7WRCJYZStw-47">
          <mxGeometry relative="1" as="geometry" />
        </mxCell>
        <mxCell id="sU6_pWVD_D7WRCJYZStw-93" style="edgeStyle=orthogonalEdgeStyle;shape=connector;rounded=0;orthogonalLoop=1;jettySize=auto;html=1;exitX=0;exitY=0.5;exitDx=0;exitDy=0;entryX=0;entryY=0.5;entryDx=0;entryDy=0;strokeColor=default;align=center;verticalAlign=middle;fontFamily=Helvetica;fontSize=11;fontColor=default;labelBackgroundColor=default;endArrow=none;" edge="1" parent="1" source="sU6_pWVD_D7WRCJYZStw-85" target="sU6_pWVD_D7WRCJYZStw-91">
          <mxGeometry relative="1" as="geometry" />
        </mxCell>
        <mxCell id="sU6_pWVD_D7WRCJYZStw-85" value="Personalia" style="rounded=0;whiteSpace=wrap;html=1;fontFamily=Helvetica;fontSize=11;fontColor=default;labelBackgroundColor=default;" vertex="1" parent="1">
          <mxGeometry x="1080" y="600" width="120" height="60" as="geometry" />
        </mxCell>
        <mxCell id="sU6_pWVD_D7WRCJYZStw-91" value="HRD" style="rounded=0;whiteSpace=wrap;html=1;fontFamily=Helvetica;fontSize=11;fontColor=default;labelBackgroundColor=default;" vertex="1" parent="1">
          <mxGeometry x="1080" y="490" width="120" height="60" as="geometry" />
        </mxCell>
        <mxCell id="sU6_pWVD_D7WRCJYZStw-96" value="Executive Assistant" style="rounded=0;whiteSpace=wrap;html=1;fontFamily=Helvetica;fontSize=11;fontColor=default;labelBackgroundColor=default;" vertex="1" parent="1">
          <mxGeometry x="1290" y="600" width="120" height="60" as="geometry" />
        </mxCell>
        <mxCell id="sU6_pWVD_D7WRCJYZStw-99" value="Social Media Specialist" style="rounded=0;whiteSpace=wrap;html=1;fontFamily=Helvetica;fontSize=11;fontColor=default;labelBackgroundColor=default;" vertex="1" parent="1">
          <mxGeometry x="414" y="490" width="120" height="60" as="geometry" />
        </mxCell>
        <mxCell id="sU6_pWVD_D7WRCJYZStw-100" value="CS Marketing" style="rounded=0;whiteSpace=wrap;html=1;fontFamily=Helvetica;fontSize=11;fontColor=default;labelBackgroundColor=default;" vertex="1" parent="1">
          <mxGeometry x="414" y="615" width="120" height="60" as="geometry" />
        </mxCell>
        <mxCell id="sU6_pWVD_D7WRCJYZStw-101" value="Creator Architect" style="rounded=0;whiteSpace=wrap;html=1;fontFamily=Helvetica;fontSize=11;fontColor=default;labelBackgroundColor=default;" vertex="1" parent="1">
          <mxGeometry x="414" y="730" width="120" height="60" as="geometry" />
        </mxCell>
        <mxCell id="sU6_pWVD_D7WRCJYZStw-102" value="Editor" style="rounded=0;whiteSpace=wrap;html=1;fontFamily=Helvetica;fontSize=11;fontColor=default;labelBackgroundColor=default;" vertex="1" parent="1">
          <mxGeometry x="414" y="840" width="120" height="60" as="geometry" />
        </mxCell>
        <mxCell id="sU6_pWVD_D7WRCJYZStw-103" value="Advertiser" style="rounded=0;whiteSpace=wrap;html=1;fontFamily=Helvetica;fontSize=11;fontColor=default;labelBackgroundColor=default;" vertex="1" parent="1">
          <mxGeometry x="414" y="950" width="120" height="60" as="geometry" />
        </mxCell>
      </root>
    </mxGraphModel>
  </diagram>
</mxfile>
